<svg xmlns="http://www.w3.org/2000/svg" width="32" height="32" viewBox="0 0 32 32">
  <defs>
    <linearGradient id="bgGrad" x1="0" y1="0" x2="1" y2="1">
      <stop offset="0%" stop-color="#0D1B3D"/>
      <stop offset="100%" stop-color="#1a2d5e"/>
    </linearGradient>
  </defs>
  <rect width="32" height="32" rx="8" fill="url(#bgGrad)"/>
  <path d="M16 6 C12 6, 8 10, 8 14 C8 18, 12 22, 16 26 C20 22, 24 18, 24 14 C24 10, 20 6, 16 6Z" fill="white" opacity="0.95"/>
  <path d="M16 10 C13 10, 10 12, 10 14 C10 17, 13 20, 16 22 C19 20, 22 17, 22 14 C22 12, 19 10, 16 10Z" fill="#F53357" opacity="0.85"/>
  <path d="M13 14 L19 14 M16 11 L16 17" stroke="white" stroke-width="1.5" stroke-linecap="round"/>
</svg>
